HIERARCHY
ROOT hip
{
  OFFSET 0 0 0
  CHANNELS 6 Xposition Yposition Zposition Zrotation Yrotation Xrotation
  JOINT abdomen
  {
    OFFSET 0 20.6881 -0.73152
    CHANNELS 3 Zrotation Xrotation Yrotation
    JOINT chest
    {
      OFFSET 0 11.7043 -0.48768
      CHANNELS 3 Zrotation Xrotation Yrotation
      JOINT neck
      {
        OFFSET 0 22.1894 -2.19456
        CHANNELS 3 Zrotation Xrotation Yrotation
        JOINT head
        {
          OFFSET -0.24384 7.07133 1.2192
          CHANNELS 3 Zrotation Xrotation Yrotation
          JOINT leftEye
          {
            OFFSET 4.14528 8.04674 8.04672
            CHANNELS 3 Zrotation Xrotation Yrotation
            End Site
            {
              OFFSET 1 0 0
            }
          }
          JOINT rightEye
          {
            OFFSET -3.6576 8.04674 8.04672
            CHANNELS 3 Zrotation Xrotation Yrotation
            End Site
            {
              OFFSET 1 0 0
            }
          }
        }
      }
      JOINT rCollar
      {
        OFFSET -2.68224 19.2634 -4.8768
        CHANNELS 3 Zrotation Xrotation Yrotation
        JOINT rShldr
        {
          OFFSET -8.77824 -1.95073 1.46304
          CHANNELS 3 Zrotation Xrotation Yrotation
          JOINT rForeArm
          {
            OFFSET -28.1742 -1.7115 0.48768
            CHANNELS 3 Zrotation Xrotation Yrotation
            JOINT rHand
            {
              OFFSET -22.5879 0.773209 7.07136
              CHANNELS 3 Zrotation Xrotation Yrotation
              JOINT rThumb1
              {
                OFFSET -1.2192 -0.487915 3.41376
                CHANNELS 3 Zrotation Xrotation Yrotation
                JOINT rThumb2
                {
                  OFFSET -3.37035 -0.52449 3.41376
                  CHANNELS 3 Zrotation Xrotation Yrotation
                  End Site
                  {
                    OFFSET -1.78271 -1.18214 1.43049
                  }
                }
              }
              JOINT rIndex1
              {
                OFFSET -7.75947 0.938293 5.60832
                CHANNELS 3 Zrotation Xrotation Yrotation
                JOINT rIndex2
                {
                  OFFSET -2.54057 -0.884171 1.56538
                  CHANNELS 3 Zrotation Xrotation Yrotation
                  End Site
                  {
                    OFFSET -1.62519 -0.234802 1.16502
                  }
                }
              }
              JOINT rMid1
              {
                OFFSET -8.24714 1.18213 3.41376
                CHANNELS 3 Zrotation Xrotation Yrotation
                JOINT rMid2
                {
                  OFFSET -3.10165 -0.590103 1.0647
                  CHANNELS 3 Zrotation Xrotation Yrotation
                  End Site
                  {
                    OFFSET -2.48547 -0.328903 0.83742
                  }
                }
              }
              JOINT rRing1
              {
                OFFSET -8.82822 0.546677 1.51678
                CHANNELS 3 Zrotation Xrotation Yrotation
                JOINT rRing2
                {
                  OFFSET -2.60934 -0.819778 -0.0198488
                  CHANNELS 3 Zrotation Xrotation Yrotation
                  End Site
                  {
                    OFFSET -2.33842 -0.294052 0.168128
                  }
                }
              }
              JOINT rPinky1
              {
                OFFSET -8.27202 -0.0477905 -0.4584
                CHANNELS 3 Zrotation Xrotation Yrotation
                JOINT rPinky2
                {
                  OFFSET -1.82734 -0.647385 -0.700984
                  CHANNELS 3 Zrotation Xrotation Yrotation
                  End Site
                  {
                    OFFSET -1.69225 -0.51767 -0.607171
                  }
                }
              }
            }
          }
        }
      }
      JOINT lCollar
      {
        OFFSET 2.68224 19.2634 -4.8768
        CHANNELS 3 Zrotation Xrotation Yrotation
        JOINT lShldr
        {
          OFFSET 8.77824 -1.95073 1.46304
          CHANNELS 3 Zrotation Xrotation Yrotation
          JOINT lForeArm
          {
            OFFSET 28.1742 -1.7115 0.48768
            CHANNELS 3 Zrotation Xrotation Yrotation
            JOINT lHand
            {
              OFFSET 22.5879 0.773209 7.07136
              CHANNELS 3 Zrotation Xrotation Yrotation
              JOINT lThumb1
              {
                OFFSET 1.2192 -0.487915 3.41376
                CHANNELS 3 Zrotation Xrotation Yrotation
                JOINT lThumb2
                {
                  OFFSET 3.37035 -0.52449 3.41376
                  CHANNELS 3 Zrotation Xrotation Yrotation
                  End Site
                  {
                    OFFSET 1.78271 -1.18214 1.43049
                  }
                }
              }
              JOINT lIndex1
              {
                OFFSET 7.75947 0.938293 5.60832
                CHANNELS 3 Zrotation Xrotation Yrotation
                JOINT lIndex2
                {
                  OFFSET 2.54057 -0.884171 1.56538
                  CHANNELS 3 Zrotation Xrotation Yrotation
                  End Site
                  {
                    OFFSET 1.62519 -0.234802 1.16502
                  }
                }
              }
              JOINT lMid1
              {
                OFFSET 8.24714 1.18213 3.41376
                CHANNELS 3 Zrotation Xrotation Yrotation
                JOINT lMid2
                {
                  OFFSET 3.10165 -0.590103 1.0647
                  CHANNELS 3 Zrotation Xrotation Yrotation
                  End Site
                  {
                    OFFSET 2.48547 -0.328903 0.83742
                  }
                }
              }
              JOINT lRing1
              {
                OFFSET 8.82822 0.546677 1.51678
                CHANNELS 3 Zrotation Xrotation Yrotation
                JOINT lRing2
                {
                  OFFSET 2.60934 -0.819778 -0.0198488
                  CHANNELS 3 Zrotation Xrotation Yrotation
                  End Site
                  {
                    OFFSET 2.33842 -0.294052 0.168128
                  }
                }
              }
              JOINT lPinky1
              {
                OFFSET 8.27202 -0.0477905 -0.4584
                CHANNELS 3 Zrotation Xrotation Yrotation
                JOINT lPinky2
                {
                  OFFSET 1.82734 -0.647385 -0.700984
                  CHANNELS 3 Zrotation Xrotation Yrotation
                  End Site
                  {
                    OFFSET 1.69225 -0.51767 -0.607171
                  }
                }
              }
            }
          }
        }
      }
    }
  }
  JOINT rButtock
  {
    OFFSET -8.77824 4.35084 1.2192
    CHANNELS 3 Zrotation Xrotation Yrotation
    JOINT rThigh
    {
      OFFSET 0 -1.70687 -2.19456
      CHANNELS 3 Zrotation Xrotation Yrotation
      JOINT rShin
      {
        OFFSET 0 -36.8199 0.73152
        CHANNELS 3 Zrotation Xrotation Yrotation
        JOINT rFoot
        {
          OFFSET 0.73152 -45.1104 -5.12064
          CHANNELS 3 Zrotation Xrotation Yrotation
          End Site
          {
            OFFSET -1.1221 -3.69964 12.103
          }
        }
      }
    }
  }
  JOINT lButtock
  {
    OFFSET 8.77824 4.35084 1.2192
    CHANNELS 3 Zrotation Xrotation Yrotation
    JOINT lThigh
    {
      OFFSET 0 -1.70687 -2.19456
      CHANNELS 3 Zrotation Xrotation Yrotation
      JOINT lShin
      {
        OFFSET 0 -36.8199 0.73152
        CHANNELS 3 Zrotation Xrotation Yrotation
        JOINT lFoot
        {
          OFFSET -0.73152 -45.1104 -5.12064
          CHANNELS 3 Zrotation Xrotation Yrotation
          End Site
          {
            OFFSET 1.1221 -3.69964 12.103
          }
        }
      }
    }
  }
}
MOTION
Frames:	4
Frame Time:	0.03333
0.0 0.0 0.0 0.0 0.0 0.0 0.0 0.0 0.0 0.0 0.0 0.0 0.0 0.0 0.0 0.0 0.0 0.0 0.0 0.0 0.0 0.0 0.0 0.0 0.0 0.0 0.0 0.0 0.0 0.0 0.0 0.0 0.0 0.0 0.0 0.0 0.0 0.0 0.0 0.0 0.0 0.0 0.0 0.0 0.0 0.0 0.0 0.0 0.0 0.0 0.0 0.0 0.0 0.0 0.0 0.0 0.0 0.0 0.0 0.0 0.0 0.0 0.0 0.0 0.0 0.0 0.0 0.0 0.0 0.0 0.0 0.0 0.0 0.0 0.0 0.0 0.0 0.0 0.0 0.0 0.0 0.0 0.0 0.0 0.0 0.0 0.0 0.0 0.0 0.0 0.0 0.0 0.0 0.0 0.0 0.0 0.0 0.0 0.0 0.0 0.0 0.0 0.0 0.0 0.0 0.0 0.0 0.0 0.0 0.0 0.0 0.0 0.0 0.0 0.0 0.0 0.0 0.0 0.0 0.0 0.0 0.0 0.0 0.0 0.0 0.0 0.0 0.0 0.0 0.0 0.0 0.0
-3.9526 82.7606 1.8507 -117.769241 -36.187898 146.051971 4.625837 28.388068 112.870633 -13.12659 -6.408774 -122.255629 6.4146 25.668861 99.438694 -36.494587 -2.663799 -137.122492 0.005465 -0.0 -0.000455 0.000215 0.0 0.000176 -159.220621 -48.028513 170.415101 -41.750059 6.227166 -15.893227 2.748414 -85.688862 -91.48489 171.579312 -20.665553 143.041592 -103.200025 36.330912 60.11089 -125.1837 -14.654802 72.670003 -138.494693 4.896954 114.865158 -169.422106 -26.650653 118.307966 -152.124798 16.40195 138.010372 3.16814 0.406477 0.397559 -145.061241 -3.30801 -178.087975 12.083717 26.315223 -5.992337 -146.22566 15.468964 -142.750749 -6.878319 -18.955444 -9.615928 153.979228 5.407527 -159.825563 -76.317806 42.519728 106.693455 -129.424487 -76.01166 -24.401793 178.816908 -1.676186 -143.152408 171.603825 -9.286097 -89.949753 -83.133411 -67.859803 -63.26357 149.661068 -14.028343 -120.543706 169.069683 -30.170413 -118.560327 36.03532 51.723602 -29.831449 174.451858 -37.806176 -143.423201 -0.001017 -0.018453 0.006374 -11.07532 -12.97094 1.617933 4.077988 -9.639949 3.813647 -8.506114 18.454929 -4.67448 -179.989878 75.749687 -0.006926 74.18474 -40.783761 -18.650165 160.381182 25.710227 -81.076054 21.818658 -61.027237 -70.397744 -179.998782 75.749688 0.0 -133.785329 23.588718 -69.015622 -25.940442 36.912512 -127.917054 -30.036382 9.654305 -174.656813
-4.5302 81.5522 2.176 -111.536612 -41.139512 129.932423 8.747456 34.573109 134.443853 -14.106522 2.087052 -147.195746 -12.147103 18.715241 -29.866753 37.58174 -10.008311 -3.923529 -0.002698 0.0 -0.002641 0.001264 0.0 0.002436 -152.28198 13.460696 157.739019 -64.747439 21.010044 41.509847 165.648649 71.098538 -105.010302 -10.636486 21.44541 0.400993 71.830173 -48.264777 25.791784 -26.364508 -81.666645 -66.155061 10.74801 -19.047651 -4.726496 -19.554531 35.686567 15.76301 -0.057868 0.167723 0.033341 -163.990531 -6.975893 143.57172 -75.674264 -72.116267 -92.828879 -149.816926 -27.089151 -179.821501 15.301005 53.352107 12.043602 -22.461378 -38.675732 -22.550556 -0.023222 -0.138522 0.031883 78.702941 6.903721 -114.652019 -56.268764 37.29751 143.891472 167.769282 27.558668 -138.394093 -0.568803 -0.561064 0.084356 -52.129785 -74.336282 11.408606 -23.269109 -41.070372 5.687379 -6.194779 13.742796 -0.541836 0.055912 0.168191 -0.031778 5.868665 23.279814 -5.023195 66.261739 72.868644 -83.836617 -4.899277 29.765806 0.256226 131.317248 -20.050059 128.880037 137.897329 -10.956795 134.840269 0.002786 6.4e-05 0.001393 -129.048007 7.494642 96.039654 -169.85039 -26.310865 18.602569 -56.440302 -14.299018 28.024471 -0.0012 0.000923 -0.0006 44.651495 -33.833262 121.730612 34.066277 -18.898425 -85.050337 70.83765 -11.90982 -16.867616
-4.6342 80.2376 1.8499 -112.383017 -43.743 129.686742 14.156915 44.987716 33.084597 -5.587905 -17.717887 -51.765131 -13.568574 20.47111 -39.454405 40.31646 -4.787309 3.171576 -0.000303 0.0 -0.003133 -0.003312 0.0 -0.002315 -80.166054 68.371507 83.260922 58.21957 -9.393036 57.700989 103.561592 -0.113283 162.691371 -126.277529 66.515283 103.37395 -8.20287 7.84853 1.807042 -155.910925 -62.510094 112.234295 5.692622 -9.761403 -2.868319 -174.186167 -31.798512 107.516187 14.568014 -44.052849 -2.823743 -163.13813 -3.898001 143.196037 -145.119497 0.185255 -179.187178 12.012089 33.470353 -5.208496 0.09996 0.258328 0.089808 -152.248251 29.153356 -147.216466 155.716717 -4.925154 -162.136161 -95.758429 38.788527 115.446414 34.041892 58.554591 -106.482062 3.424658 -9.891293 2.819709 169.583117 -7.265459 -89.930589 -168.765102 -26.367276 -96.4212 162.637301 -37.465601 -122.648369 -33.668288 -38.899319 7.738268 -68.980827 -80.155123 -40.576011 88.798987 63.900987 -80.324528 145.120371 0.268001 179.211994 156.283154 63.711034 -172.352995 -5.663939 16.872095 -5.08718 -1.084279 -2.903796 0.957675 -0.000581 0.000695 0.000747 -119.08257 6.214568 -102.635494 173.186713 22.792133 -78.403368 -28.925176 -54.700313 -124.056147 -0.002452 -0.000647 -0.002452 41.075858 -32.449267 25.822375 29.320174 41.184687 75.556647 -86.645085 -75.096667 174.919407
